<svg width="16" height="16" viewBox="0 0 16 16" fill="none" xmlns="http://www.w3.org/2000/svg">
    <path fill-rule="evenodd" clip-rule="evenodd"
          d="M6.354.172A8.008 8.008 0 0 0 1.529 3.3 7.994 7.994 0 0 0 2.67 13.964a8.012 8.012 0 0 0 13.046-3.8l-1.926-.542a6 6 0 0 1-1.734 2.81A6.01 6.01 0 0 1 2.034 8.639a5.996 5.996 0 0 1 1.113-4.164 6.008 6.008 0 0 1 7.88-1.662c.497.288.946.644 1.335 1.053l-2.59 2.592 6.164-.075L16 .226l-2.224 2.226A8.014 8.014 0 0 0 6.354.172z"
          fill="#fff"/>
</svg>
